<svg width="24" height="25" viewBox="0 0 24 25" fill="none" xmlns="http://www.w3.org/2000/svg">
<path d="M15.8978 6.45073L13.1479 1.6638C12.6373 0.774987 11.3565 0.770733 10.8401 1.65613L7.93827 6.63063C7.55392 7.28951 6.90581 7.75226 6.15783 7.90186L2.19288 8.69485C1.16597 8.90023 0.765821 10.155 1.48425 10.917L4.35202 13.9585C4.96525 14.6089 5.21181 15.5233 5.00869 16.3939L3.71064 21.9569C3.44381 23.1005 4.67861 24.0056 5.68884 23.4069L10.6411 20.4722C11.4794 19.9755 12.5218 19.9755 13.3601 20.4722L18.3124 23.4069C19.3226 24.0056 20.5574 23.1005 20.2906 21.9569L18.9811 16.3451C18.7843 15.5016 19.0095 14.615 19.585 13.9676L22.4563 10.7373C23.1404 9.96771 22.731 8.74604 21.7212 8.54409L17.6871 7.73728C16.9331 7.58647 16.2809 7.11751 15.8978 6.45073Z" stroke="white" stroke-width="2" stroke-miterlimit="10"/>
</svg>
