<svg width="32" height="32" viewBox="0 0 32 32" fill="none" xmlns="http://www.w3.org/2000/svg">
<path d="M15.9999 30.6666C24.1001 30.6666 30.6666 24.1001 30.6666 15.9999C30.6666 7.89974 24.1001 1.33325 15.9999 1.33325M15.9999 30.6666C7.89974 30.6666 1.33325 24.1001 1.33325 15.9999C1.33325 7.89974 7.89974 1.33325 15.9999 1.33325M15.9999 30.6666C18.9454 30.6666 21.3333 24.1001 21.3333 15.9999C21.3333 7.89974 18.9454 1.33325 15.9999 1.33325M15.9999 30.6666C13.0544 30.6666 10.6666 24.1001 10.6666 15.9999C10.6666 7.89974 13.0544 1.33325 15.9999 1.33325M2.66659 10.6666H29.3333M2.66659 19.9999H29.3333" stroke="white" stroke-width="2" stroke-linecap="round"/>
</svg>
